<?xml version="1.0" standalone="no"?>
<!DOCTYPE svg PUBLIC "-//W3C//DTD SVG 20010904//EN"
 "http://www.w3.org/TR/2001/REC-SVG-20010904/DTD/svg10.dtd">
<svg version="1.0" xmlns="http://www.w3.org/2000/svg"
 width="20.000000pt" height="20.000000pt" viewBox="0 0 20.000000 20.000000"
 preserveAspectRatio="xMidYMid meet">
<metadata>
Created by potrace 1.15, written by Peter Selinger 2001-2017
</metadata>
<g transform="translate(0.000000,20.000000) scale(0.100000,-0.100000)"
fill="#000000" stroke="none">
<path d="M44 176 c-4 -17 -13 -26 -25 -26 -28 0 -27 -60 1 -67 16 -4 18 -9 9
-19 -6 -7 -9 -23 -7 -36 3 -21 8 -23 71 -23 42 0 72 4 79 12 12 15 1 53 -15
54 -7 1 -1 4 13 8 19 5 26 14 28 39 3 25 0 32 -15 32 -10 0 -23 10 -28 23 -11
25 -40 30 -40 7 0 -8 13 -21 28 -28 26 -13 27 -15 13 -31 -9 -10 -16 -22 -16
-28 0 -10 -80 -63 -95 -63 -4 0 0 11 9 25 9 14 12 25 6 25 -16 0 -12 19 11 51
23 33 22 62 -3 67 -12 2 -19 -5 -24 -22z"/>
</g>
</svg>
